<?xml version="1.0" standalone="no"?>
<!DOCTYPE svg PUBLIC "-//W3C//DTD SVG 20010904//EN"
 "http://www.w3.org/TR/2001/REC-SVG-20010904/DTD/svg10.dtd">
<svg version="1.0" xmlns="http://www.w3.org/2000/svg"
 width="1080.000000pt" height="1080.000000pt" viewBox="0 0 1080.000000 1080.000000"
 preserveAspectRatio="xMidYMid meet">
<metadata>
Created by potrace 1.11, written by Peter Selinger 2001-2013
</metadata>
<g transform="translate(0.000000,1080.000000) scale(0.100000,-0.100000)"
fill="#000000" stroke="none">
<path d="M212 10780 c-7 -11 -19 -20 -28 -20 -22 0 -53 -32 -36 -38 6 -2 12
-10 12 -17 0 -15 -41 -28 -63 -19 -8 3 -33 0 -56 -6 l-41 -11 0 -5334 0 -5335
764 0 c602 0 765 3 769 13 4 10 6 10 6 0 2 -23 48 -15 56 10 l8 22 4 -22 c4
-22 33 -33 33 -14 0 19 -20 63 -36 78 -13 13 -13 17 -2 24 20 13 25 11 31 -11
3 -11 13 -20 22 -20 16 0 17 7 12 57 -4 38 -3 52 3 43 8 -12 10 -11 10 6 0 24
25 40 36 23 3 -6 -2 -19 -12 -30 -16 -18 -16 -19 8 -19 26 0 38 16 38 50 0 19
-19 30 -51 30 -10 0 -19 2 -19 5 0 15 36 75 45 75 12 0 35 90 35 138 0 18 7
44 16 57 9 14 14 32 10 40 -4 10 -2 14 5 9 6 -4 15 0 20 7 6 10 9 11 9 2 0 -7
5 -13 11 -13 5 0 7 5 4 11 -8 13 23 38 48 39 9 0 17 7 17 15 0 8 5 15 10 15 6
0 10 7 10 15 0 8 9 15 20 15 11 0 20 5 20 10 0 6 7 10 16 10 9 0 22 8 29 17
11 14 15 15 28 4 13 -10 21 -9 44 8 21 15 46 21 98 22 39 2 75 6 80 9 6 4 33
7 61 8 29 0 65 7 80 15 16 8 47 18 69 22 22 4 46 12 53 18 8 6 29 10 47 9 25
-2 35 2 40 17 5 17 16 19 94 19 61 0 97 5 119 16 17 9 39 16 49 15 16 0 16 -1
-2 -9 -17 -7 -16 -9 10 -9 34 -1 95 -35 95 -53 0 -6 -7 -3 -15 8 -16 19 -16
19 -13 -1 3 -13 11 -20 26 -19 17 0 19 -2 11 -13 -10 -12 -6 -17 13 -14 4 0 5
-6 2 -14 -8 -19 4 -67 15 -61 4 3 7 -8 6 -24 -1 -17 2 -30 6 -30 4 0 5 -9 2
-20 -3 -11 0 -26 6 -34 24 -29 61 -108 55 -118 -4 -6 -1 -9 7 -6 17 6 38 -20
39 -48 0 -11 9 -40 21 -63 12 -27 18 -53 15 -67 -4 -14 -2 -24 4 -24 5 0 10
-12 10 -27 0 -21 -3 -24 -9 -14 -8 12 -12 12 -25 -2 -21 -20 -20 -28 2 -20 11
3 7 -4 -11 -21 l-28 -28 -38 35 c-34 31 -47 35 -157 52 -85 14 -112 21 -94 26
24 7 24 7 2 8 -16 1 -22 6 -20 19 2 9 -3 16 -10 14 -19 -3 -9 22 11 30 11 5
17 16 15 25 -3 15 -15 18 -63 19 -33 1 -88 4 -122 7 -55 6 -63 5 -64 -11 0
-10 -3 -12 -6 -4 -2 6 -14 11 -26 11 -17 -1 -18 -2 -4 -6 21 -6 23 -23 1 -23
-8 0 -12 -4 -9 -10 3 -5 -3 -10 -14 -10 -11 0 -23 -4 -26 -10 -11 -18 -23 -11
-18 10 7 26 -14 26 -22 0 -6 -20 -25 -28 -25 -11 0 5 -22 11 -50 15 -49 7 -71
20 -48 29 8 3 4 6 -7 7 -71 7 -85 7 -85 -2 0 -6 -13 -8 -30 -4 -18 3 -29 2
-25 -3 3 -5 -4 -13 -15 -16 -26 -8 -20 -31 6 -28 10 1 22 -4 26 -12 6 -9 29
-13 75 -12 38 0 77 -4 88 -11 14 -8 16 -11 5 -12 -19 0 40 -40 60 -40 13 0 13
1 0 10 -25 16 -7 19 41 7 25 -7 44 -17 42 -22 -10 -33 26 -42 192 -52 95 -5
108 -4 98 8 -19 23 159 13 215 -11 39 -18 42 -21 42 -59 0 -23 5 -41 10 -41 6
0 10 -12 10 -26 0 -14 -4 -23 -10 -19 -6 3 -10 -3 -10 -14 l0 -21 3875 0 3875
0 0 3749 c0 3674 -1 3749 -19 3744 -23 -6 -35 -53 -15 -53 11 0 14 -19 14 -80
0 -64 -3 -80 -15 -80 -11 0 -15 -11 -15 -40 0 -33 -3 -40 -19 -40 -16 0 -18 5
-14 40 6 39 5 40 -25 40 l-30 0 -12 88 c-6 48 -18 103 -26 122 l-15 35 5 -35
c3 -19 8 -66 12 -103 4 -37 11 -70 15 -73 5 -3 9 -16 9 -29 0 -13 5 -27 10
-30 6 -4 8 -11 4 -16 -10 -17 -32 10 -38 49 -17 100 -24 139 -30 162 -6 22 -5
23 4 5 9 -16 9 -14 5 14 -3 18 -5 39 -6 45 0 6 -5 2 -10 -9 -6 -14 -8 4 -4 55
3 49 1 68 -5 55 -7 -16 -9 -11 -9 23 -1 24 -5 41 -9 38 -5 -3 -6 8 -4 25 2 16
0 29 -5 29 -10 0 -16 63 -17 162 0 38 -4 59 -13 62 -8 3 -13 23 -13 51 0 26
-4 54 -9 64 -5 9 -12 57 -16 107 -10 150 -16 194 -27 194 -26 0 16 -669 43
-686 5 -3 8 -24 7 -47 l-1 -42 -7 45 c-5 33 -7 15 -8 -68 -1 -73 2 -111 8
-107 12 8 13 -45 1 -64 -7 -11 -10 -9 -16 8 -3 11 -3 26 0 31 4 6 1 17 -5 26
-7 8 -21 69 -32 137 -10 67 -27 171 -36 231 -9 60 -22 111 -28 113 -19 6 -23
-75 -8 -167 23 -151 112 -651 127 -715 2 -11 2 -15 0 -9 -2 7 -13 14 -25 17
-18 5 -19 2 -13 -21 4 -15 8 -45 10 -67 l4 -40 -9 40 c-22 99 -23 105 -6 124
13 14 14 24 7 45 -14 35 -24 33 -16 -4 9 -42 -11 -38 -25 4 -6 18 -10 38 -8
42 1 5 -4 20 -12 34 l-14 25 -6 -24 c-8 -36 17 -262 31 -271 4 -3 9 -24 11
-48 3 -23 7 -45 11 -49 4 -3 7 -17 7 -29 0 -13 4 -25 9 -28 14 -9 22 -68 10
-82 -6 -7 -9 -19 -6 -26 4 -8 6 -7 6 5 1 24 18 21 25 -5 9 -36 7 -40 -14 -33
-14 5 -20 2 -20 -9 0 -10 9 -16 24 -16 14 0 26 -7 30 -17 3 -10 9 -24 12 -32
5 -10 2 -12 -10 -8 -20 8 -20 -1 0 -42 8 -17 20 -28 26 -25 10 7 28 -13 28
-31 0 -5 -5 -3 -10 5 -8 12 -10 9 -10 -12 0 -14 4 -28 9 -30 4 -1 11 -14 15
-28 6 -19 5 -21 -3 -10 -8 12 -11 8 -11 -18 0 -20 4 -31 10 -27 6 4 10 -5 10
-19 0 -14 3 -25 8 -25 19 3 32 -2 32 -12 0 -8 -4 -8 -13 -1 -9 8 -16 6 -24 -6
-9 -15 -7 -18 9 -19 24 -2 53 -36 35 -42 -6 -2 -13 1 -15 8 -7 22 -22 10 -22
-18 0 -37 9 -62 20 -56 5 3 11 1 15 -5 3 -5 -3 -10 -14 -10 -19 0 -21 -6 -21
-80 0 -60 -3 -80 -13 -80 -9 0 -18 27 -27 80 -7 44 -15 80 -17 80 -9 0 -52
-56 -53 -67 0 -7 -5 -13 -11 -13 -8 0 -9 13 -5 40 5 33 3 40 -10 40 -10 0 -14
-5 -11 -15 9 -23 -11 -28 -23 -5 -8 16 -8 20 4 20 19 0 28 14 20 34 -6 15 -8
15 -19 -1 -8 -10 -17 -14 -21 -10 -5 4 -3 12 4 16 10 6 11 16 4 42 -10 32 -10
33 -11 7 -1 -35 -18 -36 -27 -3 -3 14 -10 25 -14 25 -5 0 -14 16 -21 35 -7 19
-17 35 -21 35 -4 0 -8 6 -8 13 0 6 -17 48 -39 92 -117 240 -179 428 -202 610
-7 55 -18 111 -26 125 -13 22 -13 13 -8 -80 3 -58 8 -123 11 -145 15 -117 86
-332 168 -507 20 -42 36 -81 36 -85 0 -4 18 -43 40 -86 22 -43 40 -85 40 -93
0 -9 7 -22 15 -30 8 -9 15 -28 15 -44 0 -21 4 -28 14 -24 13 5 27 -24 33 -71
1 -11 9 -42 17 -70 10 -37 16 -45 21 -32 12 30 34 19 45 -24 9 -31 9 -44 1
-49 -7 -4 -11 -37 -10 -84 1 -43 5 -73 9 -67 4 7 11 3 18 -13 8 -19 8 -27 -2
-35 -7 -6 -16 -8 -19 -4 -4 3 -7 1 -7 -5 0 -7 -10 -11 -21 -9 -12 1 -24 -4
-27 -12 -3 -10 5 -12 37 -9 l41 4 0 -43 0 -43 -55 0 -55 0 0 -40 c0 -29 4 -40
15 -40 11 0 15 -11 15 -40 l0 -40 -55 0 -55 0 0 -39 c0 -22 5 -41 12 -43 7 -3
9 -11 4 -24 -6 -12 -10 -15 -13 -6 -3 6 -20 12 -39 12 -31 0 -34 3 -34 30 0
23 -5 31 -26 36 -14 4 -23 12 -21 18 3 6 -2 17 -10 25 -13 12 -14 11 -8 -10 7
-21 6 -22 -9 -7 -9 9 -16 33 -16 52 0 25 -4 36 -15 36 -8 0 -15 9 -15 21 0 11
-4 18 -9 14 -6 -3 -9 7 -8 22 2 22 -3 29 -20 31 -26 4 -55 59 -46 90 4 17 2
21 -9 17 -10 -4 -23 11 -41 49 -15 30 -27 59 -27 65 0 5 -3 11 -8 13 -9 4
-152 318 -152 334 0 4 -11 30 -24 58 -13 28 -31 71 -41 96 -10 25 -23 59 -30
75 -7 17 -19 48 -26 70 -7 22 -17 44 -21 50 -4 5 -8 18 -8 30 0 11 -7 32 -14
47 -16 31 -33 290 -45 683 -4 127 -9 204 -11 173 -2 -32 -5 -73 -6 -90 -5 -62
27 -963 35 -1023 5 -33 12 -105 16 -160 4 -55 18 -176 31 -270 14 -93 24 -185
22 -203 -3 -20 0 -31 6 -29 6 3 12 -5 12 -17 1 -11 5 -31 9 -43 5 -17 3 -23
-8 -23 -23 0 -31 -20 -14 -33 10 -8 13 -23 10 -44 -6 -39 -18 -42 -34 -10 -11
21 -52 73 -84 108 -8 9 -15 21 -15 27 0 7 -3 12 -7 12 -5 0 -24 24 -43 52 -19
29 -40 59 -47 68 -55 71 -118 158 -168 236 -33 50 -82 124 -109 163 l-50 72
14 107 c9 66 15 221 16 407 1 165 7 350 14 410 6 61 13 173 15 250 3 77 7 181
9 230 2 50 -1 198 -8 330 l-12 240 -2 -360 c-1 -345 -12 -576 -32 -715 -5 -36
-12 -87 -15 -115 -3 -27 -10 -66 -15 -85 -5 -19 -16 -66 -25 -105 -26 -112
-105 -435 -121 -490 -7 -27 -20 -81 -29 -120 -8 -38 -24 -99 -35 -135 -12 -36
-30 -96 -40 -135 -11 -38 -28 -101 -39 -140 -11 -38 -29 -104 -41 -145 -29
-101 -60 -192 -72 -210 -7 -12 -8 -10 -3 5 22 66 54 209 59 260 9 90 23 187
45 315 12 63 28 194 36 290 8 96 19 227 25 290 5 63 15 286 21 495 12 401 4
614 -26 745 -8 36 -22 103 -30 150 -9 46 -18 86 -20 89 -13 12 -15 -11 -5 -50
6 -24 13 -192 16 -374 l5 -330 -48 80 c-47 79 -69 110 -125 179 -16 19 -28 36
-28 40 0 3 -19 36 -43 73 -24 38 -50 82 -59 98 -27 55 -60 110 -74 126 -8 8
-14 21 -14 28 0 6 -6 24 -14 39 -11 21 -21 27 -43 26 -25 -1 -30 4 -40 40 -11
35 -12 36 -8 8 4 -29 3 -31 -10 -19 -8 9 -18 49 -23 94 -7 58 -10 67 -11 33
-2 -69 33 -281 69 -420 44 -170 181 -567 225 -650 8 -14 37 -74 66 -135 29
-60 63 -124 76 -141 13 -17 23 -34 23 -38 0 -4 9 -17 20 -29 12 -12 32 -46 46
-76 l26 -54 -16 -191 c-23 -257 -50 -452 -86 -626 -17 -80 -37 -181 -45 -225
-8 -44 -22 -100 -30 -125 -8 -25 -26 -81 -41 -125 -14 -44 -29 -89 -34 -100
-5 -11 -19 -47 -32 -80 -12 -33 -25 -62 -29 -65 -3 -3 -19 -30 -34 -60 -46
-88 -64 -110 -83 -104 -14 5 -14 4 -3 -4 12 -9 12 -15 1 -44 -21 -49 -53 -98
-67 -98 -7 0 -10 -7 -7 -15 4 -8 1 -15 -5 -15 -6 0 -11 4 -11 9 0 13 -40 21
-41 8 -1 -7 -5 8 -10 32 -5 25 -13 47 -19 51 -6 4 -9 36 -8 76 3 80 -17 247
-37 319 -8 28 -21 88 -29 135 -22 120 -43 217 -62 275 -30 96 -66 210 -79 255
-7 25 -25 77 -40 115 -14 39 -37 102 -50 140 -13 39 -33 95 -45 125 -27 67
-117 332 -155 455 -16 50 -32 97 -36 105 -36 73 -86 181 -96 210 l-13 35 5
-33 c3 -19 20 -66 38 -105 34 -75 72 -186 133 -392 19 -66 48 -156 64 -200 42
-114 160 -464 170 -500 4 -16 21 -77 38 -135 37 -126 52 -191 58 -248 2 -24 6
-47 9 -51 9 -16 74 -367 75 -408 0 -7 -4 -13 -10 -13 -5 0 -10 13 -10 30 0 21
-4 28 -14 24 -8 -3 -16 2 -19 13 -3 15 -5 14 -14 -7 -10 -24 -11 -24 -19 -5
-4 11 -14 26 -21 33 -7 7 -13 27 -13 43 0 16 -4 29 -8 29 -5 0 -18 19 -29 43
-11 23 -39 80 -62 127 -22 47 -41 89 -41 93 0 4 -32 73 -71 154 -40 82 -103
213 -141 293 -39 80 -92 190 -119 245 -27 55 -52 115 -55 133 -4 17 -10 32
-13 32 -4 0 -13 28 -20 63 -16 71 -19 79 -31 72 -4 -3 -1 -31 7 -63 8 -31 16
-66 18 -77 1 -11 7 -38 13 -60 33 -117 56 -225 107 -505 47 -254 66 -505 51
-665 -3 -27 -6 -84 -7 -125 -1 -43 -4 -59 -6 -37 -2 20 -9 37 -15 37 -7 0 -8
-14 -4 -40 3 -22 2 -40 -2 -40 -5 0 -5 -18 1 -39 8 -28 8 -46 0 -63 -9 -19
-10 -16 -6 22 4 30 2 42 -4 35 -15 -14 -27 -119 -14 -110 7 3 8 0 5 -9 -9 -23
-12 -20 -24 24 -15 55 -28 50 -24 -7 4 -61 -30 91 -51 227 -8 52 -19 115 -24
140 -5 25 -15 83 -21 130 -6 47 -14 92 -18 100 -16 42 -74 324 -98 475 -8 55
-21 123 -29 150 -21 78 -46 195 -55 255 -5 30 -18 116 -29 190 -27 174 -43
321 -39 360 l3 30 50 -32 c73 -47 85 -54 135 -79 25 -13 47 -25 50 -28 17 -20
239 -91 279 -90 35 1 35 2 -9 9 -134 23 -425 179 -512 274 -10 10 -18 20 -18
21 0 1 -11 58 -25 126 -14 68 -34 177 -45 242 -11 65 -21 121 -24 125 -2 4
-12 75 -21 157 -10 83 -20 152 -22 155 -13 12 35 -381 73 -604 13 -77 21 -142
19 -145 -9 -8 -75 70 -137 161 -67 100 -156 272 -165 321 -3 17 -9 37 -13 42
-7 9 -91 269 -104 320 -3 11 -3 -2 0 -30 3 -27 17 -81 31 -120 13 -38 28 -83
32 -100 15 -53 70 -213 79 -232 6 -10 22 -43 36 -73 31 -63 62 -115 124 -200
23 -33 39 -60 34 -60 -22 0 -139 141 -212 255 -25 39 -48 72 -52 73 -5 2 -8 9
-8 15 0 12 -119 257 -120 247 0 -8 41 -114 49 -125 4 -5 14 -26 21 -45 15 -38
128 -242 140 -250 4 -3 11 -13 16 -22 21 -38 187 -218 201 -218 2 0 21 -16 42
-35 34 -32 39 -42 44 -98 25 -275 71 -607 101 -742 9 -38 29 -144 45 -235 16
-91 45 -244 65 -340 37 -183 46 -238 49 -280 1 -14 5 -27 9 -30 8 -6 28 -147
30 -215 1 -27 5 -54 8 -60 4 -5 10 -44 13 -85 5 -71 4 -73 -7 -35 -8 26 -15
34 -19 25 -3 -8 -6 0 -6 18 -1 17 4 32 9 32 6 0 10 7 10 16 0 12 -5 11 -19 -7
l-19 -24 5 30 c3 23 2 27 -6 15 -9 -13 -11 -13 -11 2 0 10 -5 15 -13 12 -16
-6 -38 112 -42 229 -2 44 -6 81 -9 85 -16 16 -24 -22 -42 -210 -5 -47 -11 -68
-20 -68 -9 0 -14 -11 -14 -27 0 -19 -3 -24 -9 -15 -7 11 -10 10 -15 -3 -10
-26 -7 -35 9 -35 22 0 18 -18 -5 -25 -11 -3 -20 -12 -20 -18 -1 -26 -30 29
-31 57 -1 30 -1 30 -9 6 -7 -23 -8 -23 -11 10 -3 51 -4 54 -13 69 -5 8 -10 44
-12 80 -3 95 -3 95 -13 110 -7 10 -14 8 -35 -10 -14 -12 -26 -28 -26 -34 0 -6
-9 -30 -20 -53 -12 -24 -18 -47 -15 -52 4 -6 -1 -13 -10 -16 -14 -6 -15 -27
-12 -168 2 -89 7 -169 12 -176 5 -8 10 -19 10 -25 0 -5 12 -33 26 -61 21 -41
23 -52 12 -62 -21 -20 -16 -34 8 -21 19 10 20 9 14 -11 -5 -15 -4 -20 4 -16
15 9 55 -29 46 -44 -8 -13 23 -80 43 -93 7 -5 10 -13 6 -19 -4 -7 -9 -7 -13 0
-3 5 -7 -12 -8 -40 -1 -38 -6 -53 -22 -64 -12 -9 -21 -22 -21 -31 0 -9 -6 -13
-15 -9 -8 3 -14 2 -13 -2 1 -4 -2 -17 -6 -30 -5 -14 -3 -28 4 -37 11 -13 7
-15 -24 -15 l-36 0 0 -45 c0 -35 -3 -43 -15 -39 -10 4 -15 20 -15 45 0 28 -4
39 -15 39 -10 0 -15 10 -15 33 0 17 -6 91 -12 162 -11 105 -14 121 -19 85 l-5
-45 -9 42 c-4 24 -12 43 -16 43 -5 0 -6 12 -3 27 6 21 4 25 -9 20 -9 -3 -18 0
-21 9 -7 19 -42 -1 -50 -30 -4 -16 -7 -17 -20 -6 -13 10 -16 10 -16 -4 0 -9
-7 -19 -15 -22 -8 -3 -17 -14 -20 -25 -4 -10 -9 -18 -13 -18 -23 4 -32 -5 -37
-38 -13 -78 -14 -81 -34 -76 -15 4 -22 -3 -31 -33 -11 -33 -14 -35 -23 -18
-10 18 -11 17 -17 -6 -4 -14 -12 -24 -19 -22 -9 2 -10 -4 -6 -19 5 -14 3 -19
-3 -15 -6 3 -12 3 -14 -1 -1 -5 -16 -16 -33 -25 -16 -9 -31 -24 -31 -33 -2
-11 -1 -11 3 -1 2 8 13 16 23 19 25 6 31 -20 12 -51 -8 -12 -12 -31 -9 -42 6
-24 -6 -26 -27 -5 -27 28 -54 19 -62 -21 -5 -25 -3 -39 6 -44 7 -4 10 -15 7
-24 -5 -13 -14 -16 -42 -10 -23 4 -41 2 -51 -7 -9 -7 -29 -12 -45 -11 -19 2
-32 -3 -35 -13 -5 -12 -28 -15 -121 -15 -87 0 -114 3 -111 13 3 6 19 13 37 14
56 3 57 27 1 25 -19 0 -33 5 -37 14 -3 8 -12 14 -20 14 -13 0 -15 10 -9 61 3
34 6 70 6 80 0 11 6 19 14 19 9 0 15 19 19 58 4 31 10 67 13 79 4 15 2 23 -6
23 -15 0 -50 42 -43 52 9 15 43 8 43 -9 0 -14 3 -14 19 4 13 14 18 28 14 44
-6 22 -7 22 -14 3 -6 -16 -8 -15 -8 8 -1 33 -10 58 -22 58 -5 0 -9 -8 -10 -17
0 -12 -2 -14 -6 -5 -3 8 2 30 10 50 8 21 20 80 25 132 6 52 15 115 21 140 14
61 40 364 51 590 8 167 7 936 -2 1068 -2 30 0 56 3 58 4 2 18 -8 31 -24 43
-51 142 -124 208 -153 36 -17 88 -41 115 -54 81 -40 103 -28 40 22 -31 25
-144 173 -131 173 2 0 49 -22 103 -50 69 -35 131 -57 208 -75 61 -14 129 -30
153 -35 53 -12 192 -13 192 -1 0 5 -15 25 -32 44 -18 20 -40 46 -48 58 -8 12
-29 40 -46 63 -17 22 -60 84 -94 136 -35 52 -66 97 -70 100 -4 3 -15 21 -26
40 -10 19 -23 41 -28 48 -17 24 -96 261 -142 425 -9 32 -18 56 -20 54 -10 -9
77 -329 106 -392 59 -127 73 -155 107 -207 82 -123 128 -188 136 -188 4 0 7
-5 7 -11 0 -6 16 -30 35 -53 19 -24 35 -47 35 -51 0 -4 8 -14 17 -21 10 -7 16
-15 13 -17 -12 -12 -239 25 -332 54 -148 45 -252 103 -360 200 -69 61 -86 70
-80 42 4 -16 75 -127 96 -149 6 -6 21 -24 33 -40 56 -73 73 -98 69 -101 -3 -3
-36 9 -103 40 -11 5 -79 66 -150 136 -135 132 -183 185 -183 200 0 5 -4 11 -8
13 -15 5 -132 185 -132 201 0 9 -6 22 -14 30 -12 12 -136 250 -157 302 -23 56
-61 177 -73 228 -8 32 -16 61 -19 63 -8 8 2 -138 14 -208 5 -32 13 -84 19
-115 5 -32 12 -80 16 -108 3 -27 10 -57 14 -65 4 -8 22 -73 39 -145 34 -135
104 -350 123 -372 11 -14 0 -18 -17 -5 -55 40 -265 463 -366 737 -34 91 -36
99 -51 178 -5 32 -12 56 -15 53 -6 -6 26 -173 37 -194 5 -10 13 -35 18 -57 10
-38 32 -97 74 -194 11 -25 20 -56 21 -70 2 -22 -3 -26 -30 -29 -44 -4 -70 12
-78 50 -10 44 -88 199 -138 273 -58 86 -143 180 -213 235 l-61 49 4 52 c3 60
7 67 28 49 26 -22 16 -5 -12 19 -18 17 -24 19 -20 7 4 -9 3 -16 -2 -16 -5 0
-11 -20 -14 -45 -9 -84 -24 -75 -40 23 -16 90 -28 104 -20 22 l6 -62 -34 18
c-19 10 -53 21 -77 24 -40 7 -41 6 -26 -11 14 -16 14 -18 -7 -29 -32 -18 -136
-7 -188 19 -24 13 -40 18 -37 13 7 -12 102 -57 139 -66 15 -3 27 -10 27 -15 0
-14 -86 -34 -124 -29 -44 5 -46 -5 -6 -22 39 -16 38 -28 -5 -46 -41 -17 -71
-18 -114 -3 -30 11 -31 12 -31 72 0 56 21 226 35 285 3 13 2 21 -3 18 -4 -3
-5 18 0 47 17 120 17 148 -1 62 -11 -49 -23 -124 -26 -165 -4 -41 -9 -88 -12
-105 -17 -114 -27 -226 -27 -326 l-1 -116 -25 11 c-33 14 -152 137 -199 206
-68 98 -118 243 -136 393 -4 32 -11 55 -15 50 -13 -13 -30 -155 -31 -261 -1
-66 -4 -87 -9 -67 -4 17 -8 24 -9 18 -2 -20 -21 -15 -21 5 0 14 -2 15 -10 2
-5 -8 -10 -13 -10 -10 0 3 -13 44 -29 92 -42 122 -58 352 -41 593 7 93 13 172
15 175 2 3 13 64 25 135 22 134 34 183 77 320 25 82 31 96 78 200 24 53 24 57
6 38 -12 -12 -21 -26 -21 -32 0 -5 -8 -24 -17 -43 -9 -18 -22 -45 -30 -60 -7
-14 -13 -32 -13 -40 0 -7 -20 -34 -44 -61 -54 -58 -121 -187 -169 -327 -57
-169 -128 -436 -129 -490 -1 -71 -17 6 -23 117 -11 179 35 508 85 618 5 11 26
63 46 115 77 202 201 437 271 515 10 11 40 47 68 80 27 33 52 62 56 65 3 3 11
19 16 35 6 17 16 29 23 27 7 -2 10 3 7 12 -4 11 -1 13 10 9 13 -5 15 -1 9 20
-5 21 -3 25 9 21 10 -4 15 0 15 11 0 9 4 14 9 10 5 -3 13 0 17 6 3 6 1 15 -6
19 -8 5 -7 9 5 14 15 5 15 7 1 22 -9 8 -20 13 -25 10 -5 -4 -56 -6 -113 -7
-83 0 -119 4 -187 25 -47 15 -87 30 -90 34 -3 5 -15 12 -25 15 -10 4 -17 9
-15 12 3 2 57 11 122 19 110 15 145 22 227 45 108 30 155 46 158 53 2 4 22 11
43 14 30 5 39 11 34 22 -4 11 0 13 15 9 12 -3 23 1 29 10 5 10 15 14 25 10 10
-4 15 -3 11 3 -3 5 6 12 20 16 14 3 25 10 25 16 0 5 5 6 11 3 6 -4 13 2 16 14
3 12 12 21 19 21 8 0 14 5 14 11 0 5 4 8 8 5 8 -5 89 47 102 65 3 4 19 11 35
15 16 4 41 18 55 31 13 12 39 30 56 38 18 8 34 21 37 28 2 7 29 25 60 40 30
14 57 33 61 42 3 8 13 15 21 15 9 0 14 4 11 9 -7 10 37 41 57 41 8 0 17 14 21
30 3 19 12 30 22 30 11 0 14 5 10 16 -7 18 11 47 24 39 4 -2 19 9 34 26 24 27
26 33 16 67 -15 56 -13 112 5 112 11 0 15 11 15 40 0 36 -2 40 -25 40 -22 0
-25 4 -25 40 0 44 -6 49 -25 23 -11 -15 -15 -15 -29 -4 -15 13 -12 16 24 32
48 21 50 33 10 54 -26 13 -120 15 -792 11 -420 -2 -772 -4 -783 -4 -11 0 -689
2 -1507 4 l-1486 4 -7 -40 c-4 -22 -11 -40 -16 -40 -5 0 -9 -11 -9 -24 0 -47
-19 -36 -35 21 -9 32 -18 64 -20 71 -2 6 -20 12 -39 12 -31 0 -36 -4 -47 -37
-17 -53 -35 -69 -54 -49 -8 8 -15 21 -15 29 0 8 -9 17 -20 20 -11 3 -20 12
-20 21 0 13 -14 16 -83 16 -71 0 -84 -3 -95 -20z m1608 -120 c24 -13 14 -59
-15 -70 -12 -5 -127 -5 -256 0 -297 10 -441 6 -499 -13 -44 -15 -73 -20 -97
-18 -8 1 -13 16 -13 39 0 41 7 56 30 65 26 10 831 7 850 -3z m284 -2855 c5
-11 25 -31 45 -43 20 -13 51 -46 70 -73 19 -28 42 -54 53 -60 10 -5 18 -14 18
-19 0 -6 14 -29 30 -52 33 -45 39 -95 17 -137 -14 -28 -105 -63 -151 -59 -17
2 -31 -2 -33 -9 -3 -8 4 -13 15 -13 11 0 22 -9 25 -20 3 -13 14 -20 30 -20 14
0 29 -4 32 -10 3 -5 26 -10 51 -10 24 0 44 -5 44 -10 0 -6 11 -16 25 -22 26
-12 35 -45 13 -45 -36 0 -126 -28 -145 -45 -12 -11 -36 -21 -54 -21 -28 -2
-36 3 -48 28 -8 17 -18 32 -23 33 -4 2 -8 12 -8 22 0 9 -6 23 -14 29 -8 7 -13
25 -11 46 2 19 0 35 -4 35 -8 0 -18 18 -52 95 -20 45 -21 61 -17 184 4 87 10
137 17 139 6 2 9 7 6 12 -3 4 2 13 10 20 8 7 15 21 15 32 0 25 32 20 44 -7z
m8423 -334 c-4 -35 -4 -35 -5 7 -1 26 -6 41 -12 37 -6 -4 -10 7 -9 27 l1 33
14 -34 c8 -18 13 -50 11 -70z m-11 -132 c-14 -34 -14 -34 -15 -6 -1 15 4 27 9
27 6 0 11 10 11 23 1 14 3 17 6 6 2 -9 -3 -32 -11 -50z m31 -11 c-3 -7 -5 -2
-5 12 0 14 2 19 5 13 2 -7 2 -19 0 -25z m-7 -60 c0 -7 3 -31 6 -53 5 -28 3
-37 -4 -30 -16 15 -27 95 -13 95 6 0 11 -6 11 -12z m-5900 -75 c41 -2 99 -4
128 -4 28 0 52 -4 52 -10 0 -5 -22 -42 -49 -82 -26 -40 -58 -92 -71 -117 -12
-25 -24 -47 -25 -48 -2 -2 -35 7 -74 19 -85 27 -91 39 -91 175 l0 94 28 -12
c15 -6 61 -12 102 -15z m6140 -33 c0 -22 -4 -40 -10 -40 -5 0 -10 18 -10 40 0
22 5 40 10 40 6 0 10 -18 10 -40z m-5882 -13 c2 -15 -1 -27 -7 -27 -6 0 -11
-6 -11 -12 0 -18 -85 -98 -104 -98 -29 0 -28 21 4 73 30 50 85 98 105 93 6 -1
11 -15 13 -29z m5663 1 c-3 -21 -6 -26 -9 -15 -3 17 3 47 11 47 2 0 1 -15 -2
-32z m-5563 -4 c7 -2 10 -8 7 -14 -3 -5 1 -10 9 -10 9 0 18 -11 22 -24 6 -24
34 -45 34 -25 0 6 8 6 21 -1 11 -7 18 -18 15 -25 -3 -9 0 -12 10 -8 7 3 14 1
14 -5 0 -6 23 -36 51 -66 34 -38 52 -65 52 -82 0 -17 2 -22 7 -14 6 9 13 2 24
-21 12 -25 13 -29 2 -16 -13 17 -14 15 -13 -17 1 -25 6 -38 19 -42 25 -8 23
-19 -4 -22 -26 -2 -18 -4 -260 73 -113 35 -178 61 -178 69 0 7 14 46 31 87 17
41 35 89 40 107 6 17 14 32 19 32 6 0 10 9 10 20 0 20 14 21 68 4z m5709 -86
c-2 -13 -4 -3 -4 22 0 25 2 35 4 23 2 -13 2 -33 0 -45z m-4933 -120 c6 -16 14
-28 18 -28 5 0 8 -5 8 -11 0 -6 23 -56 50 -111 49 -99 57 -132 44 -197 -6 -30
-8 -31 -43 -25 -42 8 -47 14 -55 67 -4 22 -18 74 -31 116 -26 81 -53 221 -61
311 l-5 55 32 -75 c17 -41 36 -87 43 -102z m4741 16 c-13 -14 -15 -12 -15 14
0 37 12 49 22 22 5 -15 3 -26 -7 -36z m118 26 c3 -11 1 -18 -4 -14 -5 3 -9 12
-9 20 0 20 7 17 13 -6z m-5827 -5 c4 -8 1 -22 -5 -29 -9 -11 -9 -15 1 -19 7
-3 -2 -6 -19 -6 -38 -1 -44 20 -16 51 20 22 32 23 39 3z m5724 -95 c6 0 8 12
5 28 -5 26 -5 26 6 5 9 -17 9 -26 -1 -38 -11 -13 -15 -12 -36 12 -13 16 -24
35 -24 43 0 8 9 0 20 -17 11 -18 24 -33 30 -33z m119 -28 c14 -11 14 -14 1
-22 -16 -10 -29 9 -29 45 1 14 2 15 6 5 3 -8 13 -21 22 -28z m-79 -14 c0 -7
-5 -20 -10 -28 -8 -12 -10 -9 -10 13 0 15 5 27 10 27 6 0 10 -6 10 -12z
m-6043 -104 l51 -15 -14 -57 c-41 -162 -56 -247 -61 -352 -3 -66 -11 -118 -17
-122 -17 -12 14 -8 53 6 29 10 33 16 35 51 2 36 28 103 106 270 15 33 37 81
48 108 12 26 24 47 28 47 12 0 447 -110 499 -126 105 -33 107 -34 100 -68 l-6
-31 24 29 c28 33 20 33 237 -24 58 -16 117 -31 132 -34 18 -4 39 -26 71 -74
24 -37 52 -73 61 -81 13 -11 16 -36 17 -140 0 -69 4 -144 8 -166 5 -26 7 5 6
90 0 72 1 140 3 153 5 26 19 29 25 5 3 -10 4 -4 3 12 -1 17 -6 36 -10 43 -13
22 -17 108 -9 237 l8 130 27 -41 c14 -22 32 -47 40 -55 7 -8 24 -30 38 -49 13
-19 44 -60 70 -90 85 -102 73 -62 90 -318 13 -182 1 -773 -21 -1062 -5 -74
-14 -193 -19 -264 -12 -167 -39 -331 -61 -378 -9 -21 -15 -47 -12 -58 3 -11 1
-20 -5 -20 -5 0 -13 -20 -16 -45 -4 -24 -12 -48 -18 -51 -8 -5 -9 1 -5 17 4
13 7 41 7 63 0 30 3 37 15 32 8 -3 15 -1 15 4 0 6 -4 10 -10 10 -6 0 -10 66
-10 178 0 179 -27 514 -55 672 -15 87 -50 355 -62 468 -3 35 -9 58 -13 52 -4
-6 -2 -37 4 -68 5 -31 10 -178 10 -327 1 -350 -20 -495 -101 -705 -54 -139
-168 -317 -262 -409 -164 -160 -240 -197 -383 -187 -110 7 -195 40 -267 103
-34 30 -49 39 -42 25 6 -12 16 -22 21 -22 6 0 10 -5 10 -11 0 -25 95 -79 180
-102 167 -47 285 -16 424 113 126 115 189 197 268 351 105 204 129 290 158
559 12 119 21 173 26 167 2 -2 14 -60 26 -128 18 -107 21 -165 22 -429 1 -283
-5 -379 -31 -488 -3 -13 -21 -30 -47 -42 -22 -11 -77 -43 -121 -70 -126 -81
-348 -180 -401 -180 -9 0 -30 -6 -47 -14 -35 -16 -149 -54 -238 -80 -130 -37
-239 -46 -754 -57 l-510 -12 -90 22 c-102 25 -193 66 -250 111 -21 16 -41 30
-45 30 -4 0 -15 21 -25 47 -18 46 -18 48 10 193 23 122 27 166 23 256 -4 100
-8 115 -41 185 -20 42 -37 89 -37 104 0 16 22 74 49 130 51 106 60 115 123
115 15 0 29 3 31 8 10 15 -50 71 -93 88 -101 39 -150 95 -202 229 -37 97 -36
113 14 155 22 19 49 53 59 75 21 46 25 133 9 216 -60 312 -54 585 13 621 13 7
59 10 114 9 81 -2 103 2 185 30 116 40 135 52 220 135 55 54 68 63 68 46 0
-12 -15 -106 -34 -209 -19 -103 -41 -235 -50 -293 -9 -58 -24 -144 -33 -191
-18 -95 -15 -115 22 -129 52 -20 57 -11 114 191 22 79 45 158 50 174 14 42
124 421 173 595 22 80 44 152 49 161 7 14 17 14 96 -9 48 -13 111 -31 140 -38z
m1098 -63 c8 -33 2 -36 -52 -21 -103 28 -110 47 -18 46 59 -1 65 -3 70 -25z
m5085 -1 c0 -5 -2 -10 -4 -10 -3 0 -8 5 -11 10 -3 6 -1 10 4 10 6 0 11 -4 11
-10z m-6087 -167 c-7 -31 -13 -38 -33 -38 -36 0 -38 36 -4 70 34 34 50 21 37
-32z m-2433 -18 c0 -5 9 -16 20 -23 40 -25 16 -59 -27 -39 -20 9 -47 59 -38
69 9 8 45 3 45 -7z m8517 -37 c-3 -7 -5 -2 -5 12 0 14 2 19 5 13 2 -7 2 -19 0
-25z m-9777 -24 c14 -7 40 -28 58 -48 l33 -35 155 5 c151 5 157 4 209 -21 30
-14 67 -25 83 -25 40 0 58 -22 34 -42 -23 -20 -55 -31 -46 -16 9 14 -85 3
-100 -12 -6 -6 -19 -10 -30 -10 -12 0 -30 -7 -40 -15 -11 -8 -28 -15 -38 -15
-12 0 -18 -8 -18 -24 0 -14 -4 -28 -10 -31 -5 -3 -10 1 -10 9 0 9 -4 16 -10
16 -5 0 -10 -9 -10 -19 0 -30 -56 -64 -109 -66 -64 -2 -86 -11 -100 -41 -18
-41 -67 -54 -201 -55 -207 -1 -223 15 -221 213 1 138 6 170 28 205 20 31 37
36 148 43 113 6 159 3 195 -16z m3700 18 c0 -4 -6 -16 -14 -27 -7 -11 -28 -64
-45 -118 -18 -53 -37 -95 -42 -91 -5 3 -9 40 -9 82 0 69 3 79 25 101 14 13 25
26 25 31 0 7 37 28 53 29 4 1 7 -2 7 -7z m-2889 -102 c30 -17 25 -63 -12 -94
-31 -26 -73 -34 -84 -16 -3 6 -16 10 -29 10 -12 0 -31 7 -42 15 -18 15 -18 16
11 40 17 14 35 25 41 25 6 0 17 7 24 15 14 17 62 20 91 5z m8906 -52 c-3 -8
-6 -5 -6 6 -1 11 2 17 5 13 3 -3 4 -12 1 -19z m-1597 -14 c0 -8 5 -14 10 -14
6 0 10 -5 10 -11 0 -6 18 -38 40 -70 22 -32 40 -61 40 -64 0 -2 15 -27 33 -53
76 -114 112 -167 118 -172 3 -3 14 -23 25 -45 18 -37 120 -194 133 -205 3 -3
25 -32 47 -65 23 -33 62 -89 88 -125 61 -86 96 -154 96 -184 0 -42 10 -58 27
-44 23 19 43 -16 43 -73 0 -44 25 -109 43 -109 4 0 7 -5 7 -11 0 -6 -7 -9 -15
-5 -12 4 -15 -3 -15 -29 0 -26 -4 -35 -16 -35 -14 0 -16 8 -11 42 4 27 2 37
-4 27 -6 -9 -9 -10 -9 -1 0 6 -8 12 -17 12 -11 0 -14 -3 -7 -8 18 -12 25 -59
11 -71 -11 -8 -13 -4 -9 19 3 23 0 30 -12 30 -14 0 -15 -4 -6 -20 8 -16 8 -18
-4 -14 -8 3 -20 19 -26 35 -7 16 -18 29 -24 29 -10 1 -176 201 -185 224 -2 6
-10 16 -17 21 -18 14 -54 83 -54 102 0 37 -33 133 -46 133 -18 0 -18 -44 1
-115 8 -31 17 -90 21 -131 4 -41 10 -74 14 -74 4 0 8 -84 9 -187 1 -178 0
-189 -21 -213 -14 -16 -22 -21 -25 -12 -9 24 -23 11 -29 -28 -4 -22 -10 -37
-15 -34 -5 3 -9 -2 -9 -10 0 -10 -6 -13 -15 -10 -11 5 -15 -1 -15 -20 0 -17
-5 -26 -15 -26 -9 0 -15 -6 -13 -12 2 -7 -3 -32 -11 -56 -11 -34 -18 -41 -33
-37 -15 6 -17 2 -12 -27 5 -31 5 -32 -10 -14 -15 19 -16 19 -16 -8 0 -18 4
-25 13 -21 6 4 3 0 -7 -9 -10 -8 -23 -13 -27 -10 -5 3 -9 0 -9 -6 0 -6 -11
-15 -25 -20 -14 -5 -25 -16 -25 -25 0 -11 -11 -15 -40 -15 -22 0 -40 -4 -40
-10 0 -13 -27 -13 -32 -1 -4 12 -71 15 -110 5 -17 -4 -39 0 -59 10 -41 20
-214 23 -222 4 -3 -7 -6 -4 -6 7 -1 16 -3 17 -11 5 -7 -12 -13 -12 -34 -1 -17
10 -41 11 -81 6 -44 -5 -65 -3 -93 11 -51 24 -60 35 -54 72 6 41 22 52 22 15
1 -25 2 -26 11 -10 6 10 9 27 6 37 -3 12 6 31 24 51 16 18 29 37 29 43 0 17
32 45 46 39 9 -3 14 1 14 12 0 9 -4 13 -10 10 -17 -11 -11 5 15 39 14 18 25
37 25 42 0 5 9 20 20 34 11 14 20 33 20 43 0 9 4 17 8 17 4 0 18 21 31 48 13
26 42 76 66 112 23 36 46 76 50 90 4 14 18 41 31 60 13 19 31 56 40 82 8 26
20 50 25 53 5 4 9 15 9 26 0 12 11 53 25 92 20 60 76 257 172 607 8 30 21 78
29 105 8 28 19 71 26 97 10 43 28 57 28 22z m-6810 -15 c0 -12 -7 -19 -20 -19
-23 0 -24 4 -9 31 12 23 29 16 29 -12z m143 -11 c45 -13 57 -31 52 -84 -3 -21
-7 -77 -11 -124 -6 -87 -25 -150 -44 -150 -6 0 -13 6 -16 14 -3 8 -19 17 -36
20 -17 3 -37 14 -44 24 -16 21 -18 52 -3 52 12 0 8 90 -9 202 -10 68 -2 80 42
66 17 -5 48 -14 69 -20z m8278 -179 l-5 -74 -6 55 c-7 57 -2 119 9 102 3 -6 4
-43 2 -83z m-150 4 c-10 -17 -10 -16 -11 3 0 23 13 41 18 25 2 -6 -1 -18 -7
-28z m-11 -49 c0 -8 -4 -12 -10 -9 -5 3 -10 13 -10 21 0 8 5 12 10 9 6 -3 10
-13 10 -21z m-65 -23 c3 -5 1 -12 -5 -16 -5 -3 -10 1 -10 9 0 18 6 21 15 7z
m25 -35 c0 -3 -4 -8 -10 -11 -5 -3 -10 -1 -10 4 0 6 5 11 10 11 6 0 10 -2 10
-4z m-733 -558 c-3 -8 -6 -5 -6 6 -1 11 2 17 5 13 3 -3 4 -12 1 -19z m-277
-219 c0 -5 16 -23 35 -40 19 -17 35 -37 35 -45 0 -8 6 -14 14 -14 19 0 97
-115 90 -133 -3 -8 2 -17 10 -20 10 -4 13 -13 9 -24 -5 -15 -3 -15 10 2 14 18
15 14 10 -48 -4 -46 -2 -67 6 -67 6 0 11 -18 12 -42 l1 -43 12 45 c21 75 23
77 23 28 0 -27 -5 -48 -10 -48 -5 0 -6 -7 -3 -16 4 -9 4 -32 0 -50 -6 -31 -10
-34 -40 -34 -33 0 -34 1 -36 43 l-1 42 -4 -42 c-3 -32 -8 -41 -21 -41 -9 1
-30 -2 -47 -7 -16 -4 -41 -8 -55 -8 -20 -1 -26 -7 -31 -31 -6 -30 -6 -30 -8 7
-1 36 -14 50 -24 25 -3 -7 -6 -8 -6 -3 0 6 8 21 19 35 l20 25 0 -22 c0 -20 5
-23 38 -22 27 1 30 3 12 6 -34 6 -47 21 -27 29 21 8 22 34 2 34 -11 0 -15 13
-17 48 l-1 47 -7 -45 -7 -45 -3 45 -2 45 -9 -59 c-10 -68 -19 -85 -19 -35 0
64 11 108 26 102 8 -3 14 1 14 10 0 21 -17 31 -23 15 -3 -7 -6 -3 -6 10 -1 13
3 21 8 17 5 -3 12 -1 16 5 3 5 1 10 -4 10 -6 0 -12 15 -12 33 l-2 32 -7 -35
c-5 -21 -8 33 -7 132 1 92 5 164 9 162 4 -3 8 -10 8 -15z m-1303 -221 c-3 -8
-6 -5 -6 6 -1 11 2 17 5 13 3 -3 4 -12 1 -19z m30 -10 c-3 -8 -6 -5 -6 6 -1
11 2 17 5 13 3 -3 4 -12 1 -19z m15 -40 c-7 -7 -12 -8 -12 -2 0 14 12 26 19
19 2 -3 -1 -11 -7 -17z m1598 3 c0 -14 -18 -23 -31 -15 -8 4 -7 9 2 15 18 11
29 11 29 0z m-1599 -68 c-12 -20 -14 -14 -5 12 4 9 9 14 11 11 3 -2 0 -13 -6
-23z m26 -20 c-3 -10 -5 -2 -5 17 0 19 2 27 5 18 2 -10 2 -26 0 -35z m1603 26
c0 -5 -4 -9 -10 -9 -5 0 -10 7 -10 16 0 8 5 12 10 9 6 -3 10 -10 10 -16z
m-106 -5 c3 -8 2 -12 -4 -9 -6 3 -10 10 -10 16 0 14 7 11 14 -7z m-2557 -26
c-3 -8 -6 -5 -6 6 -1 11 2 17 5 13 3 -3 4 -12 1 -19z m22 -76 c1 -7 -3 -10 -9
-7 -5 3 -10 18 -9 33 0 24 1 25 9 7 5 -11 9 -26 9 -33z m498 26 c-3 -8 -6 -5
-6 6 -1 11 2 17 5 13 3 -3 4 -12 1 -19z m-527 -3 c0 -8 -4 -15 -10 -15 -5 0
-7 7 -4 15 4 8 8 15 10 15 2 0 4 -7 4 -15z m2222 -38 c-6 -12 -13 -33 -15 -47
-3 -15 -5 -7 -6 18 0 24 5 49 12 56 16 19 22 0 9 -27z m-2234 -58 c1 24 5 41
8 38 4 -4 6 -40 5 -82 -1 -51 2 -75 10 -75 7 0 10 14 7 40 -2 22 0 40 4 40 5
0 8 -4 8 -8 0 -4 13 -12 29 -18 22 -9 30 -20 35 -48 7 -35 26 -51 26 -21 0 8
-4 15 -10 15 -5 0 -10 7 -10 16 0 14 3 14 15 4 8 -7 15 -18 15 -25 0 -8 12
-23 27 -35 22 -17 25 -23 13 -30 -10 -7 -11 -10 -2 -10 6 0 12 -8 12 -17 1
-17 1 -17 11 0 14 25 29 21 29 -8 0 -20 5 -25 24 -25 15 0 26 7 29 18 3 13 6
11 15 -10 15 -37 83 -52 105 -23 4 6 6 1 5 -10 -3 -44 2 -56 20 -51 12 4 26
-2 37 -14 16 -18 17 -23 5 -30 -21 -13 -94 -12 -107 1 -12 12 -50 -4 -68 -28
-12 -17 -45 -7 -45 13 0 8 -1 14 -2 15 -2 0 -23 3 -48 6 -25 3 -48 9 -51 15
-3 5 -13 6 -22 2 -12 -4 -17 -1 -18 12 0 18 -1 18 -8 -1 -6 -14 -9 -6 -14 33
-3 28 -13 64 -22 79 l-15 28 6 -40 c4 -22 11 -43 16 -46 6 -4 8 -15 6 -25 -4
-18 -13 -2 -58 101 -16 37 -40 167 -38 209 l1 41 7 -45 7 -45 1 44z m1178 -14
c-16 -33 -30 -49 -21 -22 20 55 26 69 32 64 3 -4 -2 -22 -11 -42z m-859 -22
c-3 -10 -5 -4 -5 12 0 17 2 24 5 18 2 -7 2 -21 0 -30z m-147 -15 c0 -5 -7 -3
-15 6 -8 8 -15 18 -15 22 0 3 7 1 15 -6 8 -7 15 -17 15 -22z m190 2 c0 -5 -2
-10 -4 -10 -3 0 -8 5 -11 10 -3 6 -1 10 4 10 6 0 11 -4 11 -10z m2020 -110 c0
-22 -4 -40 -10 -40 -5 0 -10 18 -10 40 0 22 5 40 10 40 6 0 10 -18 10 -40z
m82 0 c2 -28 0 -40 -9 -40 -8 0 -13 14 -13 40 0 22 4 40 9 40 5 0 11 -18 13
-40z m-6822 -74 c49 -15 102 -37 110 -46 3 -3 26 -18 52 -33 143 -83 129 -176
-30 -191 -76 -7 -94 0 -224 87 -31 20 -67 51 -78 67 l-22 31 25 32 c16 21 42
39 73 49 27 9 49 16 49 17 0 0 20 -5 45 -13z m4723 -13 c9 -3 17 -9 17 -14 0
-14 -13 -11 -45 12 -17 12 -21 18 -10 14 11 -4 28 -10 38 -12z m174 -59 c-3
-3 -12 -4 -19 -1 -8 3 -5 6 6 6 11 1 17 -2 13 -5z m3 -34 c0 -5 -7 -10 -16
-10 -8 0 -12 5 -9 10 3 6 10 10 16 10 5 0 9 -4 9 -10z m-370 -50 c0 -5 -4 -10
-9 -10 -6 0 -13 5 -16 10 -3 6 1 10 9 10 9 0 16 -4 16 -10z m-1283 -172 c-3
-8 -6 -5 -6 6 -1 11 2 17 5 13 3 -3 4 -12 1 -19z m53 -28 c0 -5 -5 -10 -11
-10 -5 0 -7 5 -4 10 3 6 8 10 11 10 2 0 4 -4 4 -10z m-23 -82 c-3 -7 -5 -2 -5
12 0 14 2 19 5 13 2 -7 2 -19 0 -25z m970 0 c-3 -7 -5 -2 -5 12 0 14 2 19 5
13 2 -7 2 -19 0 -25z m-350 -60 c-3 -8 -6 -5 -6 6 -1 11 2 17 5 13 3 -3 4 -12
1 -19z m-50 -114 c-3 -3 -12 -4 -19 -1 -8 3 -5 6 6 6 11 1 17 -2 13 -5z m-184
-175 c7 0 3 -4 -8 -8 -11 -5 -24 -6 -30 -3 -5 3 -20 6 -34 6 -13 1 -26 6 -28
13 -6 16 59 21 75 6 7 -7 19 -13 25 -14z m-225 -151 c-3 -7 -11 -13 -18 -13
-7 0 -15 6 -17 13 -3 7 4 12 17 12 13 0 20 -5 18 -12z m-3711 -2684 c-3 -3
-12 -4 -19 -1 -8 3 -5 6 6 6 11 1 17 -2 13 -5z m-320 -70 c-3 -3 -12 -4 -19
-1 -8 3 -5 6 6 6 11 1 17 -2 13 -5z m828 -13 c3 -5 1 -12 -5 -16 -5 -3 -10 1
-10 9 0 18 6 21 15 7z m-1138 -97 c-3 -3 -12 -4 -19 -1 -8 3 -5 6 6 6 11 1 17
-2 13 -5z m1173 -21 c0 -20 -3 -24 -11 -16 -7 7 -9 19 -6 27 10 24 17 19 17
-11z m38 -78 c-3 -3 -9 2 -12 12 -6 14 -5 15 5 6 7 -7 10 -15 7 -18z m-793
-175 c3 -5 -1 -10 -9 -10 -9 0 -16 5 -16 10 0 6 4 10 9 10 6 0 13 -4 16 -10z
m936 -173 c-13 -13 -15 -27 -3 -27 4 0 15 12 24 28 22 35 22 13 1 -60 -16 -55
-33 -76 -33 -43 0 8 -4 15 -10 15 -15 0 -12 -16 6 -34 14 -15 14 -16 -3 -16
-18 0 -47 46 -37 61 3 5 -2 6 -10 3 -26 -10 -19 4 24 48 22 23 40 47 41 53 0
5 3 4 6 -3 3 -8 0 -19 -6 -25z m57 -55 c-10 -39 -24 -59 -33 -50 -3 3 1 18 10
34 8 16 15 37 15 47 0 10 4 16 9 13 6 -4 5 -21 -1 -44z m-1638 28 c0 -5 -4
-10 -10 -10 -5 0 -10 5 -10 10 0 6 5 10 10 10 6 0 10 -4 10 -10z"/>
<path d="M5907 5778 c8 -84 13 -86 13 -5 0 37 -4 67 -9 67 -5 0 -7 -28 -4 -62z"/>
<path d="M9670 5030 c0 -5 4 -10 9 -10 6 0 13 5 16 10 3 6 -1 10 -9 10 -9 0
-16 -4 -16 -10z"/>
<path d="M8480 4754 c0 -8 5 -12 10 -9 6 3 10 10 10 16 0 5 -4 9 -10 9 -5 0
-10 -7 -10 -16z"/>
<path d="M8340 4569 c0 -5 5 -7 10 -4 6 3 10 8 10 11 0 2 -4 4 -10 4 -5 0 -10
-5 -10 -11z"/>
<path d="M9443 5040 c0 -47 2 -66 4 -42 2 23 2 61 0 85 -2 23 -4 4 -4 -43z"/>
<path d="M9597 4974 c3 -7 9 -14 14 -14 14 0 10 17 -5 23 -10 4 -13 1 -9 -9z"/>
<path d="M9616 4911 c-4 -7 -5 -15 -2 -18 9 -9 19 4 14 18 -4 11 -6 11 -12 0z"/>
<path d="M9493 4760 c0 -25 2 -35 4 -22 2 12 2 32 0 45 -2 12 -4 2 -4 -23z"/>
<path d="M7215 4570 c-3 -5 -1 -10 4 -10 6 0 11 5 11 10 0 6 -2 10 -4 10 -3 0
-8 -4 -11 -10z"/>
<path d="M7415 4290 c3 -5 8 -10 11 -10 2 0 4 5 4 10 0 6 -5 10 -11 10 -5 0
-7 -4 -4 -10z"/>
<path d="M3220 139 c0 -5 5 -7 10 -4 6 3 10 8 10 11 0 2 -4 4 -10 4 -5 0 -10
-5 -10 -11z"/>
<path d="M7150 10785 c0 -18 16 -20 26 -3 5 8 10 6 15 -8 7 -19 8 -19 8 0 1
19 1 19 15 1 11 -15 29 -19 91 -21 74 -3 102 -14 89 -36 -8 -12 6 -49 16 -43
5 3 11 1 14 -4 4 -6 58 -8 131 -5 106 3 125 2 125 -11 0 -9 -10 -16 -27 -17
-18 0 -12 -3 17 -7 25 -4 49 -3 54 1 6 4 18 0 28 -8 16 -15 18 -15 24 0 10 26
27 19 20 -8 -3 -14 -2 -28 4 -31 10 -6 13 20 10 90 -1 22 -6 42 -11 43 -5 2
-9 11 -9 20 0 13 4 12 20 -6 12 -13 20 -35 20 -56 0 -19 4 -37 8 -40 5 -3 5
20 1 51 -8 58 1 97 23 106 7 3 -150 6 -349 6 -316 1 -363 -1 -363 -14z m607
-127 c-2 -13 -4 -3 -4 22 0 25 2 35 4 23 2 -13 2 -33 0 -45z"/>
<path d="M8477 10774 c-10 -14 -16 -32 -13 -40 3 -8 2 -12 -3 -9 -6 3 -13 -15
-16 -40 -4 -25 -11 -43 -15 -40 -4 2 -5 -8 -3 -23 4 -21 2 -24 -6 -12 -12 18
-12 20 -17 -50 -5 -64 -10 -83 -23 -76 -5 3 -8 -2 -6 -11 14 -70 14 -70 42
-70 69 0 104 -4 99 -12 -3 -4 36 -11 87 -14 51 -3 110 -11 132 -17 37 -11 71
-20 188 -50 77 -20 60 -38 -30 -32 -102 6 -90 -5 17 -17 266 -29 570 -148 800
-311 36 -25 72 -49 80 -53 32 -14 211 -145 270 -197 107 -94 245 -237 314
-325 26 -33 51 -65 56 -72 5 -7 7 -18 5 -26 -3 -7 5 -29 19 -48 42 -58 77
-122 73 -133 -2 -6 8 -22 22 -36 18 -17 26 -36 26 -60 0 -24 7 -41 23 -53 12
-10 20 -22 17 -27 -3 -4 4 -29 16 -54 11 -25 17 -51 13 -58 -5 -8 1 -9 20 -4
25 6 26 5 17 -13 -14 -26 -14 -31 4 -31 16 0 20 -16 6 -24 -18 -11 34 -180 53
-173 7 3 12 -11 13 -36 0 -22 7 -43 14 -47 9 -6 8 -17 -5 -50 -17 -43 -14 -81
7 -77 9 1 11 -15 9 -55 -3 -38 0 -58 7 -58 8 0 11 357 11 1280 l0 1280 -1152
0 -1153 -1 -18 -25z m1983 -1498 c0 -3 -4 -8 -10 -11 -5 -3 -10 -1 -10 4 0 6
5 11 10 11 6 0 10 -2 10 -4z m137 -308 c-3 -8 -6 -5 -6 6 -1 11 2 17 5 13 3
-3 4 -12 1 -19z"/>
<path d="M5140 10220 c0 -5 4 -10 9 -10 6 0 13 5 16 10 3 6 -1 10 -9 10 -9 0
-16 -4 -16 -10z"/>
<path d="M10381 9330 c-1 -20 27 -56 36 -47 3 4 0 13 -9 20 -9 6 -18 19 -21
27 -5 13 -5 13 -6 0z"/>
<path d="M4186 8955 c-3 -9 -6 -22 -5 -28 0 -7 5 -1 10 12 5 13 8 26 5 28 -2
2 -6 -3 -10 -12z"/>
<path d="M10750 8120 c0 -22 4 -40 10 -40 5 0 9 -34 9 -77 0 -47 4 -79 10 -81
18 -6 13 -19 -9 -25 -25 -6 -26 -25 -2 -34 9 -4 20 -11 24 -17 4 -6 8 62 8
152 l0 162 -25 0 c-22 0 -25 -4 -25 -40z"/>
<path d="M4736 8021 c10 -11 30 -14 59 -11 17 2 17 3 -5 10 -36 11 -66 12 -54
1z"/>
<path d="M4808 7990 c13 -6 31 -6 45 0 18 7 14 9 -23 9 -37 0 -41 -2 -22 -9z"/>
<path d="M4873 7973 c9 -2 23 -2 30 0 6 3 -1 5 -18 5 -16 0 -22 -2 -12 -5z"/>
<path d="M6471 7824 c0 -11 3 -14 6 -6 3 7 2 16 -1 19 -3 4 -6 -2 -5 -13z"/>
<path d="M10760 7820 c0 -5 9 -10 20 -10 11 0 20 5 20 10 0 6 -9 10 -20 10
-11 0 -20 -4 -20 -10z"/>
<path d="M9678 7724 c-10 -130 9 -874 26 -1009 31 -247 39 -295 47 -295 17 0
7 134 -30 413 -6 43 -13 196 -17 340 -4 144 -9 345 -13 447 -5 161 -7 174 -13
104z"/>
<path d="M10760 7780 c0 -5 9 -10 20 -10 11 0 20 5 20 10 0 6 -9 10 -20 10
-11 0 -20 -4 -20 -10z"/>
<path d="M10565 7760 c-3 -6 1 -7 9 -4 18 7 21 14 7 14 -6 0 -13 -4 -16 -10z"/>
<path d="M7062 7735 c0 -16 2 -22 5 -12 2 9 2 23 0 30 -3 6 -5 -1 -5 -18z"/>
<path d="M10755 7683 c12 -124 45 -171 45 -63 0 47 -3 60 -15 60 -11 0 -15 11
-15 40 0 23 -5 40 -11 40 -8 0 -9 -23 -4 -77z"/>
<path d="M4592 7720 c0 -14 2 -19 5 -12 2 6 2 18 0 25 -3 6 -5 1 -5 -13z"/>
<path d="M6611 7660 c0 -8 9 -33 19 -55 10 -22 19 -33 19 -25 0 8 -9 33 -19
55 -10 22 -19 33 -19 25z"/>
<path d="M4562 7630 c0 -14 2 -19 5 -12 2 6 2 18 0 25 -3 6 -5 1 -5 -13z"/>
<path d="M10608 7583 c5 -21 7 -23 10 -9 2 10 0 22 -6 28 -6 6 -7 0 -4 -19z"/>
<path d="M7431 7585 c1 -19 18 -51 18 -35 0 8 -4 22 -9 30 -5 8 -9 11 -9 5z"/>
<path d="M4730 7568 c0 -4 14 -8 30 -8 17 0 30 2 30 4 0 2 -13 6 -30 8 -16 3
-30 1 -30 -4z"/>
<path d="M6512 7560 c0 -14 2 -19 5 -12 2 6 2 18 0 25 -3 6 -5 1 -5 -13z"/>
<path d="M4801 7556 c2 -2 22 -6 44 -10 29 -5 36 -4 25 3 -13 10 -79 16 -69 7z"/>
<path d="M5081 7504 c0 -11 3 -14 6 -6 3 7 2 16 -1 19 -3 4 -6 -2 -5 -13z"/>
<path d="M7454 7505 c4 -11 10 -35 13 -52 3 -18 9 -30 13 -28 9 6 -11 79 -24
92 -5 5 -6 0 -2 -12z"/>
<path d="M6531 7470 c0 -8 3 -31 9 -50 5 -19 14 -64 20 -100 17 -109 38 -197
39 -166 0 15 -5 58 -13 95 -31 141 -54 235 -55 221z"/>
<path d="M10663 7400 c0 -25 2 -35 4 -22 2 12 2 32 0 45 -2 12 -4 2 -4 -23z"/>
<path d="M5130 7406 c0 -2 8 -10 18 -17 15 -13 16 -12 3 4 -13 16 -21 21 -21
13z"/>
<path d="M7483 7393 c3 -10 15 -45 28 -78 12 -33 28 -76 35 -95 7 -19 13 -27
14 -18 0 20 -35 133 -51 160 -5 10 -9 25 -9 33 0 8 -5 15 -11 15 -6 0 -9 -8
-6 -17z"/>
<path d="M5177 7359 c7 -7 15 -10 18 -7 3 3 -2 9 -12 12 -14 6 -15 5 -6 -5z"/>
<path d="M5422 7335 c0 -16 2 -22 5 -12 2 9 2 23 0 30 -3 6 -5 -1 -5 -18z"/>
<path d="M10750 7320 c0 -5 5 -10 10 -10 6 0 10 5 10 10 0 6 -4 10 -10 10 -5
0 -10 -4 -10 -10z"/>
<path d="M5431 7284 c0 -11 3 -14 6 -6 3 7 2 16 -1 19 -3 4 -6 -2 -5 -13z"/>
<path d="M10440 7210 c0 -5 5 -10 11 -10 5 0 7 5 4 10 -3 6 -8 10 -11 10 -2 0
-4 -4 -4 -10z"/>
<path d="M7570 7175 c0 -5 5 -17 10 -25 5 -8 10 -10 10 -5 0 6 -5 17 -10 25
-5 8 -10 11 -10 5z"/>
<path d="M6607 7083 c6 -40 10 -49 18 -42 7 8 -7 79 -16 79 -4 0 -5 -17 -2
-37z"/>
<path d="M10375 6047 c-4 -10 -5 -21 -1 -24 10 -10 18 4 13 24 -4 17 -4 17
-12 0z"/>
<path d="M10460 5903 c0 -14 -6 -23 -15 -23 -8 0 -15 -5 -15 -11 0 -5 5 -7 11
-4 6 4 16 -1 23 -11 20 -27 28 -1 11 37 -12 28 -14 30 -15 12z"/>
<path d="M10062 5585 c6 -14 15 -25 19 -25 12 0 -2 38 -17 44 -11 4 -11 0 -2
-19z"/>
<path d="M10102 5580 c0 -14 2 -19 5 -12 2 6 2 18 0 25 -3 6 -5 1 -5 -13z"/>
<path d="M10463 5573 c-30 -6 -29 -20 2 -25 19 -4 25 -1 25 13 0 11 -1 18 -2
18 -2 -1 -13 -4 -25 -6z"/>
<path d="M10300 5510 c0 -5 5 -10 10 -10 6 0 10 5 10 10 0 6 -4 10 -10 10 -5
0 -10 -4 -10 -10z"/>
<path d="M7442 5000 c0 -14 2 -19 5 -12 2 6 2 18 0 25 -3 6 -5 1 -5 -13z"/>
<path d="M7221 4914 c0 -11 3 -14 6 -6 3 7 2 16 -1 19 -3 4 -6 -2 -5 -13z"/>
<path d="M7425 4870 c3 -5 8 -10 11 -10 2 0 4 5 4 10 0 6 -5 10 -11 10 -5 0
-7 -4 -4 -10z"/>
<path d="M7471 4784 c0 -11 3 -14 6 -6 3 7 2 16 -1 19 -3 4 -6 -2 -5 -13z"/>
<path d="M7582 4770 c0 -19 2 -27 5 -17 2 9 2 25 0 35 -3 9 -5 1 -5 -18z"/>
<path d="M7082 4360 c-7 -11 -9 -20 -4 -20 10 0 32 22 32 32 0 15 -15 8 -28
-12z"/>
<path d="M6871 4304 c0 -11 3 -14 6 -6 3 7 2 16 -1 19 -3 4 -6 -2 -5 -13z"/>
<path d="M6180 3960 c0 -36 3 -40 25 -40 23 0 25 4 25 40 0 36 -2 40 -25 40
-22 0 -25 -4 -25 -40z"/>
<path d="M6540 3960 c0 -5 5 -10 10 -10 6 0 10 5 10 10 0 6 -4 10 -10 10 -5 0
-10 -4 -10 -10z"/>
<path d="M6320 3950 c0 -5 5 -10 10 -10 6 0 10 5 10 10 0 6 -4 10 -10 10 -5 0
-10 -4 -10 -10z"/>
<path d="M6120 3840 l0 -80 54 0 55 0 4 43 4 42 1 -42 c2 -36 5 -43 22 -43 22
0 26 28 14 90 -6 29 -10 31 -35 26 -28 -5 -59 13 -59 35 0 5 -13 9 -30 9 l-30
0 0 -80z"/>
<path d="M6460 3880 c0 -22 4 -40 9 -40 5 0 12 -8 14 -17 2 -10 3 -5 1 11 -2
16 -4 41 -4 57 0 16 -4 29 -10 29 -5 0 -10 -18 -10 -40z"/>
<path d="M6571 3854 c0 -11 3 -14 6 -6 3 7 2 16 -1 19 -3 4 -6 -2 -5 -13z"/>
<path d="M6433 3800 c0 -25 2 -35 4 -22 2 12 2 32 0 45 -2 12 -4 2 -4 -23z"/>
<path d="M2635 840 c3 -5 11 -10 16 -10 6 0 7 5 4 10 -3 6 -11 10 -16 10 -6 0
-7 -4 -4 -10z"/>
<path d="M2910 840 c0 -5 5 -10 10 -10 6 0 10 5 10 10 0 6 -4 10 -10 10 -5 0
-10 -4 -10 -10z"/>
<path d="M1803 440 c0 -25 2 -35 4 -22 2 12 2 32 0 45 -2 12 -4 2 -4 -23z"/>
<path d="M3101 434 c0 -11 3 -14 6 -6 3 7 2 16 -1 19 -3 4 -6 -2 -5 -13z"/>
<path d="M1800 380 c0 -5 7 -10 15 -10 8 0 15 5 15 10 0 6 -7 10 -15 10 -8 0
-15 -4 -15 -10z"/>
<path d="M2365 360 c4 -6 11 -8 16 -5 14 9 11 15 -7 15 -8 0 -12 -5 -9 -10z"/>
<path d="M1800 340 c0 -5 7 -10 15 -10 8 0 15 5 15 10 0 6 -7 10 -15 10 -8 0
-15 -4 -15 -10z"/>
<path d="M3140 331 c0 -6 4 -13 10 -16 6 -3 7 1 4 9 -7 18 -14 21 -14 7z"/>
<path d="M3100 189 c0 -5 5 -7 10 -4 6 3 10 8 10 11 0 2 -4 4 -10 4 -5 0 -10
-5 -10 -11z"/>
<path d="M1661 14 c0 -11 3 -14 6 -6 3 7 2 16 -1 19 -3 4 -6 -2 -5 -13z"/>
</g>
</svg>
